<mxfile host="app.diagrams.net" modified="2024-07-16T11:20:26.276Z" agent="Mozilla/5.0 (Windows NT 10.0; Win64; x64) AppleWebKit/537.36 (KHTML, like Gecko) Chrome/126.0.0.0 Safari/537.36" etag="Wo1BNDq-Uqfi_Lm9RmmG" version="24.6.5" type="device">
  <diagram id="R2lEEEUBdFMjLlhIrx00" name="Page-1">
    <mxGraphModel dx="1828" dy="1593" grid="1" gridSize="10" guides="1" tooltips="1" connect="1" arrows="1" fold="1" page="1" pageScale="1" pageWidth="850" pageHeight="1100" math="0" shadow="0" extFonts="Permanent Marker^https://fonts.googleapis.com/css?family=Permanent+Marker">
      <root>
        <mxCell id="0" />
        <mxCell id="1" parent="0" />
        <mxCell id="0Ffj8gRkB4KOhT0iWY5d-5" value="COMPANY" style="whiteSpace=wrap;html=1;align=center;" vertex="1" parent="1">
          <mxGeometry x="375" y="-120" width="100" height="40" as="geometry" />
        </mxCell>
        <mxCell id="0Ffj8gRkB4KOhT0iWY5d-31" value="" style="edgeStyle=none;shape=connector;rounded=0;orthogonalLoop=1;jettySize=auto;html=1;strokeColor=default;align=center;verticalAlign=middle;fontFamily=Helvetica;fontSize=11;fontColor=default;labelBackgroundColor=default;endArrow=none;endFill=0;" edge="1" parent="1" source="0Ffj8gRkB4KOhT0iWY5d-6" target="0Ffj8gRkB4KOhT0iWY5d-27">
          <mxGeometry relative="1" as="geometry" />
        </mxCell>
        <mxCell id="0Ffj8gRkB4KOhT0iWY5d-6" value="DEPARTMENT" style="whiteSpace=wrap;html=1;align=center;" vertex="1" parent="1">
          <mxGeometry x="375" y="50" width="100" height="40" as="geometry" />
        </mxCell>
        <mxCell id="0Ffj8gRkB4KOhT0iWY5d-8" value="EMPLOYEE" style="whiteSpace=wrap;html=1;align=center;" vertex="1" parent="1">
          <mxGeometry x="375" y="370" width="100" height="40" as="geometry" />
        </mxCell>
        <mxCell id="0Ffj8gRkB4KOhT0iWY5d-41" value="" style="edgeStyle=none;shape=connector;rounded=0;orthogonalLoop=1;jettySize=auto;html=1;strokeColor=default;align=center;verticalAlign=middle;fontFamily=Helvetica;fontSize=11;fontColor=default;labelBackgroundColor=default;endArrow=none;endFill=0;" edge="1" parent="1" source="0Ffj8gRkB4KOhT0iWY5d-9" target="0Ffj8gRkB4KOhT0iWY5d-32">
          <mxGeometry relative="1" as="geometry" />
        </mxCell>
        <mxCell id="0Ffj8gRkB4KOhT0iWY5d-9" value="PROJECT" style="whiteSpace=wrap;html=1;align=center;" vertex="1" parent="1">
          <mxGeometry x="375" y="200" width="100" height="40" as="geometry" />
        </mxCell>
        <mxCell id="0Ffj8gRkB4KOhT0iWY5d-10" value="SALARY FULL TIME" style="whiteSpace=wrap;html=1;align=center;" vertex="1" parent="1">
          <mxGeometry x="100" y="430" width="100" height="40" as="geometry" />
        </mxCell>
        <mxCell id="0Ffj8gRkB4KOhT0iWY5d-11" value="WAGE PART-TIME" style="whiteSpace=wrap;html=1;align=center;" vertex="1" parent="1">
          <mxGeometry x="100" y="320" width="100" height="40" as="geometry" />
        </mxCell>
        <mxCell id="0Ffj8gRkB4KOhT0iWY5d-17" value="" style="edgeStyle=none;shape=connector;rounded=0;orthogonalLoop=1;jettySize=auto;html=1;strokeColor=default;align=center;verticalAlign=middle;fontFamily=Helvetica;fontSize=11;fontColor=default;labelBackgroundColor=default;endArrow=classic;endFill=1;" edge="1" parent="1" source="0Ffj8gRkB4KOhT0iWY5d-12" target="0Ffj8gRkB4KOhT0iWY5d-8">
          <mxGeometry relative="1" as="geometry" />
        </mxCell>
        <mxCell id="0Ffj8gRkB4KOhT0iWY5d-100" style="edgeStyle=none;shape=connector;rounded=0;orthogonalLoop=1;jettySize=auto;html=1;exitX=0;exitY=0;exitDx=0;exitDy=0;entryX=1;entryY=0.75;entryDx=0;entryDy=0;strokeColor=default;align=center;verticalAlign=middle;fontFamily=Helvetica;fontSize=11;fontColor=default;labelBackgroundColor=default;endArrow=classic;endFill=1;" edge="1" parent="1" source="0Ffj8gRkB4KOhT0iWY5d-12" target="0Ffj8gRkB4KOhT0iWY5d-11">
          <mxGeometry relative="1" as="geometry" />
        </mxCell>
        <mxCell id="0Ffj8gRkB4KOhT0iWY5d-101" style="edgeStyle=none;shape=connector;rounded=0;orthogonalLoop=1;jettySize=auto;html=1;exitX=0;exitY=1;exitDx=0;exitDy=0;entryX=1;entryY=0.5;entryDx=0;entryDy=0;strokeColor=default;align=center;verticalAlign=middle;fontFamily=Helvetica;fontSize=11;fontColor=default;labelBackgroundColor=default;endArrow=classic;endFill=1;" edge="1" parent="1" source="0Ffj8gRkB4KOhT0iWY5d-12" target="0Ffj8gRkB4KOhT0iWY5d-10">
          <mxGeometry relative="1" as="geometry" />
        </mxCell>
        <mxCell id="0Ffj8gRkB4KOhT0iWY5d-12" value="HAS" style="shape=rhombus;perimeter=rhombusPerimeter;whiteSpace=wrap;html=1;align=center;" vertex="1" parent="1">
          <mxGeometry x="220" y="360" width="120" height="60" as="geometry" />
        </mxCell>
        <mxCell id="0Ffj8gRkB4KOhT0iWY5d-38" value="" style="edgeStyle=none;shape=connector;rounded=0;orthogonalLoop=1;jettySize=auto;html=1;strokeColor=default;align=center;verticalAlign=middle;fontFamily=Helvetica;fontSize=11;fontColor=default;labelBackgroundColor=default;endArrow=none;endFill=0;" edge="1" parent="1" source="0Ffj8gRkB4KOhT0iWY5d-19" target="0Ffj8gRkB4KOhT0iWY5d-36">
          <mxGeometry relative="1" as="geometry" />
        </mxCell>
        <mxCell id="0Ffj8gRkB4KOhT0iWY5d-19" value="RELATIVE" style="whiteSpace=wrap;html=1;align=center;fontFamily=Helvetica;fontSize=11;fontColor=default;labelBackgroundColor=default;" vertex="1" parent="1">
          <mxGeometry x="700" y="370" width="100" height="40" as="geometry" />
        </mxCell>
        <mxCell id="0Ffj8gRkB4KOhT0iWY5d-63" style="edgeStyle=none;shape=connector;rounded=0;orthogonalLoop=1;jettySize=auto;html=1;exitX=0;exitY=0.5;exitDx=0;exitDy=0;entryX=0;entryY=0.5;entryDx=0;entryDy=0;strokeColor=default;align=center;verticalAlign=middle;fontFamily=Helvetica;fontSize=11;fontColor=default;labelBackgroundColor=default;endArrow=classic;endFill=1;" edge="1" parent="1" source="0Ffj8gRkB4KOhT0iWY5d-23" target="0Ffj8gRkB4KOhT0iWY5d-8">
          <mxGeometry relative="1" as="geometry">
            <Array as="points">
              <mxPoint x="340" y="440" />
            </Array>
          </mxGeometry>
        </mxCell>
        <mxCell id="0Ffj8gRkB4KOhT0iWY5d-64" style="edgeStyle=none;shape=connector;rounded=0;orthogonalLoop=1;jettySize=auto;html=1;exitX=1;exitY=0.5;exitDx=0;exitDy=0;entryX=1;entryY=0.5;entryDx=0;entryDy=0;strokeColor=default;align=center;verticalAlign=middle;fontFamily=Helvetica;fontSize=11;fontColor=default;labelBackgroundColor=default;endArrow=none;endFill=0;" edge="1" parent="1" source="0Ffj8gRkB4KOhT0iWY5d-23" target="0Ffj8gRkB4KOhT0iWY5d-8">
          <mxGeometry relative="1" as="geometry">
            <Array as="points">
              <mxPoint x="510" y="440" />
            </Array>
          </mxGeometry>
        </mxCell>
        <mxCell id="0Ffj8gRkB4KOhT0iWY5d-23" value="MANAGE" style="shape=rhombus;perimeter=rhombusPerimeter;whiteSpace=wrap;html=1;align=center;fontFamily=Helvetica;fontSize=11;fontColor=default;labelBackgroundColor=default;" vertex="1" parent="1">
          <mxGeometry x="365" y="460" width="120" height="60" as="geometry" />
        </mxCell>
        <mxCell id="0Ffj8gRkB4KOhT0iWY5d-54" value="" style="edgeStyle=none;shape=connector;rounded=0;orthogonalLoop=1;jettySize=auto;html=1;strokeColor=default;align=center;verticalAlign=middle;fontFamily=Helvetica;fontSize=11;fontColor=default;labelBackgroundColor=default;endArrow=classic;endFill=1;" edge="1" parent="1" source="0Ffj8gRkB4KOhT0iWY5d-27" target="0Ffj8gRkB4KOhT0iWY5d-5">
          <mxGeometry relative="1" as="geometry" />
        </mxCell>
        <mxCell id="0Ffj8gRkB4KOhT0iWY5d-27" value="HAS" style="shape=rhombus;perimeter=rhombusPerimeter;whiteSpace=wrap;html=1;align=center;fontFamily=Helvetica;fontSize=11;fontColor=default;labelBackgroundColor=default;" vertex="1" parent="1">
          <mxGeometry x="365" y="-30" width="120" height="60" as="geometry" />
        </mxCell>
        <mxCell id="0Ffj8gRkB4KOhT0iWY5d-60" style="edgeStyle=none;shape=connector;rounded=0;orthogonalLoop=1;jettySize=auto;html=1;exitX=0.5;exitY=0;exitDx=0;exitDy=0;entryX=0.5;entryY=1;entryDx=0;entryDy=0;strokeColor=default;align=center;verticalAlign=middle;fontFamily=Helvetica;fontSize=11;fontColor=default;labelBackgroundColor=default;endArrow=none;endFill=0;" edge="1" parent="1" source="0Ffj8gRkB4KOhT0iWY5d-32" target="0Ffj8gRkB4KOhT0iWY5d-6">
          <mxGeometry relative="1" as="geometry" />
        </mxCell>
        <mxCell id="0Ffj8gRkB4KOhT0iWY5d-32" value="MANAGE" style="shape=rhombus;perimeter=rhombusPerimeter;whiteSpace=wrap;html=1;align=center;fontFamily=Helvetica;fontSize=11;fontColor=default;labelBackgroundColor=default;" vertex="1" parent="1">
          <mxGeometry x="365" y="120" width="120" height="60" as="geometry" />
        </mxCell>
        <mxCell id="0Ffj8gRkB4KOhT0iWY5d-62" value="" style="edgeStyle=none;shape=connector;rounded=0;orthogonalLoop=1;jettySize=auto;html=1;strokeColor=default;align=center;verticalAlign=middle;fontFamily=Helvetica;fontSize=11;fontColor=default;labelBackgroundColor=default;endArrow=none;endFill=0;" edge="1" parent="1" source="0Ffj8gRkB4KOhT0iWY5d-36" target="0Ffj8gRkB4KOhT0iWY5d-8">
          <mxGeometry relative="1" as="geometry" />
        </mxCell>
        <mxCell id="0Ffj8gRkB4KOhT0iWY5d-36" value="OF" style="shape=rhombus;perimeter=rhombusPerimeter;whiteSpace=wrap;html=1;align=center;fontFamily=Helvetica;fontSize=11;fontColor=default;labelBackgroundColor=default;" vertex="1" parent="1">
          <mxGeometry x="560" y="360" width="120" height="60" as="geometry" />
        </mxCell>
        <mxCell id="0Ffj8gRkB4KOhT0iWY5d-46" style="edgeStyle=none;shape=connector;rounded=0;orthogonalLoop=1;jettySize=auto;html=1;exitX=0.5;exitY=1;exitDx=0;exitDy=0;entryX=0.5;entryY=0;entryDx=0;entryDy=0;strokeColor=default;align=center;verticalAlign=middle;fontFamily=Helvetica;fontSize=11;fontColor=default;labelBackgroundColor=default;endArrow=none;endFill=0;" edge="1" parent="1" source="0Ffj8gRkB4KOhT0iWY5d-42" target="0Ffj8gRkB4KOhT0iWY5d-8">
          <mxGeometry relative="1" as="geometry">
            <mxPoint x="425" y="350" as="targetPoint" />
          </mxGeometry>
        </mxCell>
        <mxCell id="0Ffj8gRkB4KOhT0iWY5d-59" style="edgeStyle=none;shape=connector;rounded=0;orthogonalLoop=1;jettySize=auto;html=1;exitX=0.5;exitY=0;exitDx=0;exitDy=0;entryX=0.5;entryY=1;entryDx=0;entryDy=0;strokeColor=default;align=center;verticalAlign=middle;fontFamily=Helvetica;fontSize=11;fontColor=default;labelBackgroundColor=default;endArrow=classic;endFill=1;" edge="1" parent="1" source="0Ffj8gRkB4KOhT0iWY5d-42" target="0Ffj8gRkB4KOhT0iWY5d-9">
          <mxGeometry relative="1" as="geometry" />
        </mxCell>
        <mxCell id="0Ffj8gRkB4KOhT0iWY5d-42" value="JOIN" style="shape=rhombus;perimeter=rhombusPerimeter;whiteSpace=wrap;html=1;align=center;fontFamily=Helvetica;fontSize=11;fontColor=default;labelBackgroundColor=default;" vertex="1" parent="1">
          <mxGeometry x="365" y="270" width="120" height="60" as="geometry" />
        </mxCell>
        <mxCell id="0Ffj8gRkB4KOhT0iWY5d-66" value="" style="edgeStyle=none;shape=connector;rounded=0;orthogonalLoop=1;jettySize=auto;html=1;strokeColor=default;align=center;verticalAlign=middle;fontFamily=Helvetica;fontSize=11;fontColor=default;labelBackgroundColor=default;endArrow=none;endFill=0;" edge="1" parent="1" source="0Ffj8gRkB4KOhT0iWY5d-65" target="0Ffj8gRkB4KOhT0iWY5d-6">
          <mxGeometry relative="1" as="geometry" />
        </mxCell>
        <mxCell id="0Ffj8gRkB4KOhT0iWY5d-65" value="LOCATION" style="ellipse;shape=doubleEllipse;margin=3;whiteSpace=wrap;html=1;align=center;fontFamily=Helvetica;fontSize=11;fontColor=default;labelBackgroundColor=default;" vertex="1" parent="1">
          <mxGeometry x="210" y="50" width="100" height="40" as="geometry" />
        </mxCell>
        <mxCell id="0Ffj8gRkB4KOhT0iWY5d-71" style="edgeStyle=none;shape=connector;rounded=0;orthogonalLoop=1;jettySize=auto;html=1;exitX=1;exitY=1;exitDx=0;exitDy=0;entryX=0;entryY=0.25;entryDx=0;entryDy=0;strokeColor=default;align=center;verticalAlign=middle;fontFamily=Helvetica;fontSize=11;fontColor=default;labelBackgroundColor=default;endArrow=none;endFill=0;" edge="1" parent="1" source="0Ffj8gRkB4KOhT0iWY5d-67" target="0Ffj8gRkB4KOhT0iWY5d-9">
          <mxGeometry relative="1" as="geometry" />
        </mxCell>
        <mxCell id="0Ffj8gRkB4KOhT0iWY5d-67" value="NAME" style="ellipse;whiteSpace=wrap;html=1;align=center;fontFamily=Helvetica;fontSize=11;fontColor=default;labelBackgroundColor=default;" vertex="1" parent="1">
          <mxGeometry x="210" y="150" width="100" height="40" as="geometry" />
        </mxCell>
        <mxCell id="0Ffj8gRkB4KOhT0iWY5d-69" value="" style="edgeStyle=none;shape=connector;rounded=0;orthogonalLoop=1;jettySize=auto;html=1;strokeColor=default;align=center;verticalAlign=middle;fontFamily=Helvetica;fontSize=11;fontColor=default;labelBackgroundColor=default;endArrow=none;endFill=0;" edge="1" parent="1" source="0Ffj8gRkB4KOhT0iWY5d-68" target="0Ffj8gRkB4KOhT0iWY5d-9">
          <mxGeometry relative="1" as="geometry" />
        </mxCell>
        <mxCell id="0Ffj8gRkB4KOhT0iWY5d-68" value="CODE" style="ellipse;whiteSpace=wrap;html=1;align=center;fontStyle=4;fontFamily=Helvetica;fontSize=11;fontColor=default;labelBackgroundColor=default;" vertex="1" parent="1">
          <mxGeometry x="210" y="200" width="100" height="40" as="geometry" />
        </mxCell>
        <mxCell id="0Ffj8gRkB4KOhT0iWY5d-72" style="edgeStyle=none;shape=connector;rounded=0;orthogonalLoop=1;jettySize=auto;html=1;exitX=1;exitY=0.5;exitDx=0;exitDy=0;entryX=0;entryY=0.75;entryDx=0;entryDy=0;strokeColor=default;align=center;verticalAlign=middle;fontFamily=Helvetica;fontSize=11;fontColor=default;labelBackgroundColor=default;endArrow=none;endFill=0;" edge="1" parent="1" source="0Ffj8gRkB4KOhT0iWY5d-70" target="0Ffj8gRkB4KOhT0iWY5d-9">
          <mxGeometry relative="1" as="geometry" />
        </mxCell>
        <mxCell id="0Ffj8gRkB4KOhT0iWY5d-70" value="LOCATION" style="ellipse;whiteSpace=wrap;html=1;align=center;fontFamily=Helvetica;fontSize=11;fontColor=default;labelBackgroundColor=default;" vertex="1" parent="1">
          <mxGeometry x="200" y="260" width="100" height="40" as="geometry" />
        </mxCell>
        <mxCell id="0Ffj8gRkB4KOhT0iWY5d-74" style="edgeStyle=none;shape=connector;rounded=0;orthogonalLoop=1;jettySize=auto;html=1;exitX=1;exitY=0.5;exitDx=0;exitDy=0;entryX=0;entryY=0.25;entryDx=0;entryDy=0;strokeColor=default;align=center;verticalAlign=middle;fontFamily=Helvetica;fontSize=11;fontColor=default;labelBackgroundColor=default;endArrow=none;endFill=0;" edge="1" parent="1" source="0Ffj8gRkB4KOhT0iWY5d-73" target="0Ffj8gRkB4KOhT0iWY5d-11">
          <mxGeometry relative="1" as="geometry" />
        </mxCell>
        <mxCell id="0Ffj8gRkB4KOhT0iWY5d-73" value="PAY RATE" style="ellipse;whiteSpace=wrap;html=1;align=center;fontFamily=Helvetica;fontSize=11;fontColor=default;labelBackgroundColor=default;" vertex="1" parent="1">
          <mxGeometry x="-60" y="280" width="100" height="40" as="geometry" />
        </mxCell>
        <mxCell id="0Ffj8gRkB4KOhT0iWY5d-76" style="edgeStyle=none;shape=connector;rounded=0;orthogonalLoop=1;jettySize=auto;html=1;exitX=1;exitY=0.5;exitDx=0;exitDy=0;entryX=0;entryY=0.5;entryDx=0;entryDy=0;strokeColor=default;align=center;verticalAlign=middle;fontFamily=Helvetica;fontSize=11;fontColor=default;labelBackgroundColor=default;endArrow=none;endFill=0;" edge="1" parent="1" source="0Ffj8gRkB4KOhT0iWY5d-75" target="0Ffj8gRkB4KOhT0iWY5d-11">
          <mxGeometry relative="1" as="geometry" />
        </mxCell>
        <mxCell id="0Ffj8gRkB4KOhT0iWY5d-75" value="HOURS OF WORKING" style="ellipse;whiteSpace=wrap;html=1;align=center;fontFamily=Helvetica;fontSize=11;fontColor=default;labelBackgroundColor=default;" vertex="1" parent="1">
          <mxGeometry x="-100" y="350" width="140" height="60" as="geometry" />
        </mxCell>
        <mxCell id="0Ffj8gRkB4KOhT0iWY5d-78" value="" style="edgeStyle=none;shape=connector;rounded=0;orthogonalLoop=1;jettySize=auto;html=1;strokeColor=default;align=center;verticalAlign=middle;fontFamily=Helvetica;fontSize=11;fontColor=default;labelBackgroundColor=default;endArrow=none;endFill=0;" edge="1" parent="1" source="0Ffj8gRkB4KOhT0iWY5d-77" target="0Ffj8gRkB4KOhT0iWY5d-10">
          <mxGeometry relative="1" as="geometry" />
        </mxCell>
        <mxCell id="0Ffj8gRkB4KOhT0iWY5d-77" value="COMPANY POLICIES" style="ellipse;whiteSpace=wrap;html=1;align=center;fontFamily=Helvetica;fontSize=11;fontColor=default;labelBackgroundColor=default;" vertex="1" parent="1">
          <mxGeometry x="-100" y="440" width="150" height="60" as="geometry" />
        </mxCell>
        <mxCell id="0Ffj8gRkB4KOhT0iWY5d-83" style="edgeStyle=none;shape=connector;rounded=0;orthogonalLoop=1;jettySize=auto;html=1;exitX=0.331;exitY=0.981;exitDx=0;exitDy=0;entryX=1;entryY=0.25;entryDx=0;entryDy=0;strokeColor=default;align=center;verticalAlign=middle;fontFamily=Helvetica;fontSize=11;fontColor=default;labelBackgroundColor=default;endArrow=none;endFill=0;exitPerimeter=0;" edge="1" parent="1" source="0Ffj8gRkB4KOhT0iWY5d-102" target="0Ffj8gRkB4KOhT0iWY5d-8">
          <mxGeometry relative="1" as="geometry">
            <mxPoint x="554.6446609406726" y="214.14213562373106" as="sourcePoint" />
          </mxGeometry>
        </mxCell>
        <mxCell id="0Ffj8gRkB4KOhT0iWY5d-81" value="CODE" style="ellipse;whiteSpace=wrap;html=1;align=center;fontFamily=Helvetica;fontSize=11;fontColor=default;labelBackgroundColor=default;" vertex="1" parent="1">
          <mxGeometry x="530" y="260" width="100" height="40" as="geometry" />
        </mxCell>
        <mxCell id="0Ffj8gRkB4KOhT0iWY5d-84" value="" style="endArrow=classic;startArrow=classic;html=1;rounded=0;strokeColor=default;align=center;verticalAlign=middle;fontFamily=Helvetica;fontSize=11;fontColor=default;labelBackgroundColor=default;entryX=0;entryY=1;entryDx=0;entryDy=0;exitX=1;exitY=0.5;exitDx=0;exitDy=0;" edge="1" parent="1" source="0Ffj8gRkB4KOhT0iWY5d-8" target="0Ffj8gRkB4KOhT0iWY5d-81">
          <mxGeometry width="50" height="50" relative="1" as="geometry">
            <mxPoint x="510" y="360" as="sourcePoint" />
            <mxPoint x="560" y="310" as="targetPoint" />
          </mxGeometry>
        </mxCell>
        <mxCell id="0Ffj8gRkB4KOhT0iWY5d-90" style="edgeStyle=none;shape=connector;rounded=0;orthogonalLoop=1;jettySize=auto;html=1;exitX=0;exitY=0.5;exitDx=0;exitDy=0;entryX=1;entryY=0.5;entryDx=0;entryDy=0;strokeColor=default;align=center;verticalAlign=middle;fontFamily=Helvetica;fontSize=11;fontColor=default;labelBackgroundColor=default;endArrow=none;endFill=0;" edge="1" parent="1" source="0Ffj8gRkB4KOhT0iWY5d-86" target="0Ffj8gRkB4KOhT0iWY5d-8">
          <mxGeometry relative="1" as="geometry" />
        </mxCell>
        <mxCell id="0Ffj8gRkB4KOhT0iWY5d-86" value="DOB" style="ellipse;whiteSpace=wrap;html=1;align=center;fontFamily=Helvetica;fontSize=11;fontColor=default;labelBackgroundColor=default;" vertex="1" parent="1">
          <mxGeometry x="670" y="300" width="100" height="40" as="geometry" />
        </mxCell>
        <mxCell id="0Ffj8gRkB4KOhT0iWY5d-89" style="edgeStyle=none;shape=connector;rounded=0;orthogonalLoop=1;jettySize=auto;html=1;exitX=0;exitY=0.5;exitDx=0;exitDy=0;entryX=1;entryY=0.5;entryDx=0;entryDy=0;strokeColor=default;align=center;verticalAlign=middle;fontFamily=Helvetica;fontSize=11;fontColor=default;labelBackgroundColor=default;endArrow=none;endFill=0;" edge="1" parent="1" source="0Ffj8gRkB4KOhT0iWY5d-87" target="0Ffj8gRkB4KOhT0iWY5d-8">
          <mxGeometry relative="1" as="geometry" />
        </mxCell>
        <mxCell id="0Ffj8gRkB4KOhT0iWY5d-87" value="ADDRESS" style="ellipse;whiteSpace=wrap;html=1;align=center;fontFamily=Helvetica;fontSize=11;fontColor=default;labelBackgroundColor=default;" vertex="1" parent="1">
          <mxGeometry x="700" y="250" width="100" height="40" as="geometry" />
        </mxCell>
        <mxCell id="0Ffj8gRkB4KOhT0iWY5d-91" style="edgeStyle=none;shape=connector;rounded=0;orthogonalLoop=1;jettySize=auto;html=1;exitX=0.5;exitY=1;exitDx=0;exitDy=0;entryX=1;entryY=0.5;entryDx=0;entryDy=0;strokeColor=default;align=center;verticalAlign=middle;fontFamily=Helvetica;fontSize=11;fontColor=default;labelBackgroundColor=default;endArrow=none;endFill=0;" edge="1" parent="1" source="0Ffj8gRkB4KOhT0iWY5d-88" target="0Ffj8gRkB4KOhT0iWY5d-8">
          <mxGeometry relative="1" as="geometry" />
        </mxCell>
        <mxCell id="0Ffj8gRkB4KOhT0iWY5d-88" value="GENDER" style="ellipse;whiteSpace=wrap;html=1;align=center;fontFamily=Helvetica;fontSize=11;fontColor=default;labelBackgroundColor=default;" vertex="1" parent="1">
          <mxGeometry x="660" y="200" width="100" height="40" as="geometry" />
        </mxCell>
        <mxCell id="0Ffj8gRkB4KOhT0iWY5d-93" style="edgeStyle=none;shape=connector;rounded=0;orthogonalLoop=1;jettySize=auto;html=1;exitX=0.321;exitY=1.036;exitDx=0;exitDy=0;entryX=1;entryY=0.25;entryDx=0;entryDy=0;strokeColor=default;align=center;verticalAlign=middle;fontFamily=Helvetica;fontSize=11;fontColor=default;labelBackgroundColor=default;endArrow=none;endFill=0;exitPerimeter=0;" edge="1" parent="1" source="0Ffj8gRkB4KOhT0iWY5d-99" target="0Ffj8gRkB4KOhT0iWY5d-8">
          <mxGeometry relative="1" as="geometry">
            <mxPoint x="674.644660940683" y="184.14213562372674" as="sourcePoint" />
          </mxGeometry>
        </mxCell>
        <mxCell id="0Ffj8gRkB4KOhT0iWY5d-96" style="edgeStyle=none;shape=connector;rounded=0;orthogonalLoop=1;jettySize=auto;html=1;exitX=0.5;exitY=0;exitDx=0;exitDy=0;entryX=0.25;entryY=1;entryDx=0;entryDy=0;strokeColor=default;align=center;verticalAlign=middle;fontFamily=Helvetica;fontSize=11;fontColor=default;labelBackgroundColor=default;endArrow=none;endFill=0;" edge="1" parent="1" source="0Ffj8gRkB4KOhT0iWY5d-94" target="0Ffj8gRkB4KOhT0iWY5d-19">
          <mxGeometry relative="1" as="geometry" />
        </mxCell>
        <mxCell id="0Ffj8gRkB4KOhT0iWY5d-94" value="NAME" style="ellipse;whiteSpace=wrap;html=1;align=center;fontFamily=Helvetica;fontSize=11;fontColor=default;labelBackgroundColor=default;" vertex="1" parent="1">
          <mxGeometry x="630" y="460" width="100" height="40" as="geometry" />
        </mxCell>
        <mxCell id="0Ffj8gRkB4KOhT0iWY5d-98" style="edgeStyle=none;shape=connector;rounded=0;orthogonalLoop=1;jettySize=auto;html=1;exitX=0.5;exitY=0;exitDx=0;exitDy=0;entryX=0.75;entryY=1;entryDx=0;entryDy=0;strokeColor=default;align=center;verticalAlign=middle;fontFamily=Helvetica;fontSize=11;fontColor=default;labelBackgroundColor=default;endArrow=none;endFill=0;" edge="1" parent="1" source="0Ffj8gRkB4KOhT0iWY5d-97" target="0Ffj8gRkB4KOhT0iWY5d-19">
          <mxGeometry relative="1" as="geometry" />
        </mxCell>
        <mxCell id="0Ffj8gRkB4KOhT0iWY5d-97" value="DOB" style="ellipse;whiteSpace=wrap;html=1;align=center;fontFamily=Helvetica;fontSize=11;fontColor=default;labelBackgroundColor=default;" vertex="1" parent="1">
          <mxGeometry x="750" y="440" width="100" height="40" as="geometry" />
        </mxCell>
        <mxCell id="0Ffj8gRkB4KOhT0iWY5d-99" value="WAGE OF PROJECT PER WEEK" style="ellipse;whiteSpace=wrap;html=1;align=center;dashed=1;fontFamily=Helvetica;fontSize=11;fontColor=default;labelBackgroundColor=default;" vertex="1" parent="1">
          <mxGeometry x="650" y="130" width="110" height="40" as="geometry" />
        </mxCell>
        <mxCell id="0Ffj8gRkB4KOhT0iWY5d-106" style="edgeStyle=none;shape=connector;rounded=0;orthogonalLoop=1;jettySize=auto;html=1;exitX=1;exitY=0;exitDx=0;exitDy=0;entryX=0;entryY=1;entryDx=0;entryDy=0;strokeColor=default;align=center;verticalAlign=middle;fontFamily=Helvetica;fontSize=11;fontColor=default;labelBackgroundColor=default;endArrow=none;endFill=0;" edge="1" parent="1" source="0Ffj8gRkB4KOhT0iWY5d-102" target="0Ffj8gRkB4KOhT0iWY5d-105">
          <mxGeometry relative="1" as="geometry" />
        </mxCell>
        <mxCell id="0Ffj8gRkB4KOhT0iWY5d-102" value="FULL NAME" style="ellipse;whiteSpace=wrap;html=1;align=center;fontFamily=Helvetica;fontSize=11;fontColor=default;labelBackgroundColor=default;" vertex="1" parent="1">
          <mxGeometry x="510" y="170" width="100" height="40" as="geometry" />
        </mxCell>
        <mxCell id="0Ffj8gRkB4KOhT0iWY5d-104" style="edgeStyle=none;shape=connector;rounded=0;orthogonalLoop=1;jettySize=auto;html=1;exitX=0;exitY=1;exitDx=0;exitDy=0;entryX=0;entryY=0;entryDx=0;entryDy=0;strokeColor=default;align=center;verticalAlign=middle;fontFamily=Helvetica;fontSize=11;fontColor=default;labelBackgroundColor=default;endArrow=none;endFill=0;" edge="1" parent="1" source="0Ffj8gRkB4KOhT0iWY5d-103" target="0Ffj8gRkB4KOhT0iWY5d-102">
          <mxGeometry relative="1" as="geometry" />
        </mxCell>
        <mxCell id="0Ffj8gRkB4KOhT0iWY5d-103" value="FIRST NAME" style="ellipse;whiteSpace=wrap;html=1;align=center;fontFamily=Helvetica;fontSize=11;fontColor=default;labelBackgroundColor=default;" vertex="1" parent="1">
          <mxGeometry x="520" y="70" width="100" height="40" as="geometry" />
        </mxCell>
        <mxCell id="0Ffj8gRkB4KOhT0iWY5d-105" value="MIDLE NAME" style="ellipse;whiteSpace=wrap;html=1;align=center;fontFamily=Helvetica;fontSize=11;fontColor=default;labelBackgroundColor=default;" vertex="1" parent="1">
          <mxGeometry x="640" y="60" width="100" height="40" as="geometry" />
        </mxCell>
      </root>
    </mxGraphModel>
  </diagram>
</mxfile>
